<svg id="Layer_1" data-name="Layer 1" xmlns="http://www.w3.org/2000/svg" viewBox="0 0 694.55 76.36"><defs><style>.cls-1{fill:#040000;}</style></defs><title>bloverlogo</title><path class="cls-1" d="M694.55,76.2h-30l-7.68-4.89c-.24-.18-.75-.48-1.5-.91l-4.91-2.93-7.81-5.42-8.44-5.8A120,120,0,0,0,619.92,49a73.61,73.61,0,0,0-11.75-3.91q-5.22-1.19-17.6-1.19H584V76.2h-25.2V1.91h44.11q26.72,0,42.41,5.58T661,22.6q0,6.48-7.7,11.22t-22,7.07a91.07,91.07,0,0,1,16.51,6.38q8.07,4,22.69,14.1,9.19,6.32,14.74,9.51ZM631,28.84c2.64-1.85,4-4,4-6.35s-1.48-4.46-4.42-6.35-7.08-3.24-12.41-4S604,11,591.6,11H584V34.42h9.58q19.15,0,26.28-1.38c4.72-.94,8.38-2.29,11.07-4.2Z" transform="translate(0 0)"/><polygon class="cls-1" points="553.16 66.69 553.16 76.15 444.1 76.15 444.1 1.96 550.6 1.96 550.6 11.43 471 11.43 471 34.09 547.91 34.09 547.91 43.61 471 43.61 471 66.69 553.16 66.69"/><polygon class="cls-1" points="439.61 1.76 374.85 76.36 369.88 76.36 303.86 1.76 325.94 1.76 372.01 53.92 417.77 1.76 439.61 1.76"/><path class="cls-1" d="M297.63,8.94q14.78,8.94,14.77,22.43T297.5,53.69q-14.91,8.84-37.59,8.84-21.66,0-36.08-8.84T209.4,31.55q0-13.66,14.54-22.61T260.67,0Q282.87,0,297.63,8.94Zm.65,22.26q0-9.69-10.73-16.3T261.21,8.29q-16.44,0-27,6.54T223.6,31.55q0,9.85,10.62,16.4T260.8,54.5q16,0,26.75-6.68T298.28,31.2Z" transform="translate(0 0)"/><polygon class="cls-1" points="276.55 66.52 276.55 76.2 140.8 76.2 140.8 1.91 173.55 1.91 173.55 66.52 276.55 66.52"/><path class="cls-1" d="M135.91,55.09q0,5.69-7.81,10.15t-23,7.29Q90,75.35,67.28,75.35H0V1.06H52q24.6,0,38.39,2.47t21,6.81q7.26,4.34,7.26,10,0,11-30.29,15.68,21.75,1.54,34.62,6.7T135.91,55.09ZM101.44,60.3c3.36-1.92,5-4,5-6.17s-1.78-4.34-5.34-6.22-8.6-3.28-15.13-4.2-16.88-1.38-31-1.38H28.44V65.88h28q23.31,0,31.63-1.35a40.63,40.63,0,0,0,13.37-4.23ZM79.69,29.61q9.59-3.24,9.59-8.4,0-10.68-36.39-10.68H28.44V32.86H47.35q22.74,0,32.34-3.25Z" transform="translate(0 0)"/></svg>