<svg id="Layer_1" data-name="Layer 1" xmlns="http://www.w3.org/2000/svg" viewBox="0 0 584.17 466.72"><defs><style>.cls-1{stroke:#231f20;stroke-miterlimit:10;stroke-width:10px;}</style></defs><title>bloverlogofavicon</title><path class="cls-1" d="M329.72,304" transform="translate(-137.74 -187.58)"/><path class="cls-1" d="M362,327.24" transform="translate(-137.74 -187.58)"/><polygon points="110.38 0 110.38 12.94 238.39 12.94 238.39 110.97 163.79 110.97 163.79 120.18 238.39 120.18 238.39 218.21 110.38 218.21 110.38 231.15 238.39 231.15 257.21 231.15 257.21 218.21 257.21 12.94 257.21 0 238.39 0 110.38 0"/><path d="M515,435.42c119.77-15.81,206.93-64.08,206.93-121.18,0-70-130.77-126.66-292.08-126.66H411.67v359.6H537.81V534.65h-108V440.89c75.55,0,146.35,11.18,199.35,31.48,50.22,19.23,77.88,44.12,77.88,70.07s-27.66,50.85-77.88,70.08c-53,20.3-123.8,31.48-199.35,31.48s-146.35-11.18-199.36-31.48c-50.21-19.23-77.87-44.12-77.87-70.08s27.66-50.84,77.87-70.07c44.76-17.14,102.22-27.75,164.49-30.64V431.38C250.09,438,137.74,485.19,137.74,542.44c0,61.78,130.78,111.87,292.09,111.87s292.08-50.09,292.08-111.87C721.91,492,634.75,449.38,515,435.42ZM429.83,199.25c75.55,0,146.35,12.66,199.35,35.65,50.22,21.77,77.88,50,77.88,79.34s-27.66,57.56-77.88,79.34c-53,23-123.8,35.64-199.35,35.64Z" transform="translate(-137.74 -187.58)"/></svg>