<svg id="Layer_1" data-name="Layer 1" xmlns="http://www.w3.org/2000/svg" viewBox="0 0 694.55 76.36"><defs><style>.cls-1{fill:#fff;}</style></defs><title>bloverlogo</title><path class="cls-1" d="M1315.27,596.45h-30l-7.68-4.89c-.24-.18-.75-.48-1.5-.91l-4.91-2.93-7.81-5.42-8.44-5.8a119.68,119.68,0,0,0-14.29-7.28,73.87,73.87,0,0,0-11.75-3.91q-5.22-1.18-17.6-1.19h-6.56v32.33h-25.2V522.16h44.11q26.71,0,42.41,5.58t15.7,15.11q0,6.48-7.7,11.22t-22,7.07a91.48,91.48,0,0,1,16.51,6.38q8.07,4,22.69,14.1,9.19,6.32,14.74,9.51Zm-63.58-47.36c2.64-1.85,4-4,4-6.35s-1.48-4.46-4.42-6.35-7.08-3.24-12.41-4-14.18-1.17-26.54-1.17h-7.56v23.45h9.58q19.15,0,26.28-1.38C1245.34,552.35,1249,551,1251.69,549.09Z" transform="translate(-620.72 -520.25)"/><polygon class="cls-1" points="553.16 66.69 553.16 76.15 444.1 76.15 444.1 1.96 550.6 1.96 550.6 11.43 471 11.43 471 34.09 547.91 34.09 547.91 43.61 471 43.61 471 66.69 553.16 66.69"/><polygon class="cls-1" points="439.61 1.76 374.85 76.36 369.88 76.36 303.86 1.76 325.94 1.76 372.01 53.92 417.77 1.76 439.61 1.76"/><path class="cls-1" d="M918.35,529.19q14.77,8.94,14.77,22.43t-14.9,22.32q-14.91,8.84-37.59,8.84-21.66,0-36.08-8.84T830.12,551.8q0-13.66,14.54-22.61t36.73-8.94Q903.59,520.25,918.35,529.19Zm.65,22.26q0-9.69-10.73-16.3t-26.34-6.61q-16.44,0-27,6.54T844.32,551.8q0,9.86,10.62,16.4t26.58,6.55q16,0,26.75-6.68T919,551.45Z" transform="translate(-620.72 -520.25)"/><polygon class="cls-1" points="276.55 66.52 276.55 76.2 140.8 76.2 140.8 1.91 173.55 1.91 173.55 66.52 276.55 66.52"/><path class="cls-1" d="M756.63,575.34q0,5.68-7.81,10.15t-23,7.29Q710.71,595.6,688,595.6H620.72V521.31h52q24.6,0,38.39,2.47t21,6.81q7.26,4.33,7.26,10,0,10.95-30.29,15.68,21.75,1.55,34.62,6.7T756.63,575.34Zm-34.47,5.21c3.36-1.92,5.05-4,5.05-6.17s-1.78-4.34-5.34-6.22-8.6-3.28-15.13-4.2-16.88-1.38-31-1.38H649.16v23.55h28q23.31,0,31.63-1.35A40.64,40.64,0,0,0,722.16,580.55Zm-21.75-30.69q9.58-3.24,9.59-8.4,0-10.68-36.39-10.68H649.16v22.33h18.91Q690.81,553.11,700.41,549.86Z" transform="translate(-620.72 -520.25)"/></svg>